# Blender v2.81 (sub 16) OBJ File: 'shelf.blend'
# www.blender.org
mtllib shelfdéformée.mtl
o Cube_Cube.001
v -1.000000 0.038571 -0.028765
v -1.000000 1.000000 -0.028765
v -1.000000 0.038571 -1.000000
v -1.000000 1.000000 -1.000000
v 1.000000 0.038571 -0.028765
v 1.000000 1.000000 -0.028765
v 1.000000 0.038571 -1.000000
v 1.000000 1.000000 -1.000000
v -0.922221 0.116350 -0.028765
v -0.922221 0.922221 -0.028765
v -0.936492 0.102079 -0.936492
v -0.936492 0.936492 -0.936492
v 0.922221 0.116350 -0.028765
v 0.922221 0.922221 -0.028765
v 0.936492 0.102079 -0.936492
v 0.936492 0.936492 -0.936492
v -1.000000 1.000000 -0.028765
v -1.000000 1.961429 -0.028765
v -1.000000 1.000000 -1.000000
v -1.000000 1.961429 -1.000000
v 1.000000 1.000000 -0.028765
v 1.000000 1.961429 -0.028765
v 1.000000 1.000000 -1.000000
v 1.000000 1.961429 -1.000000
v -0.922221 1.077779 -0.028765
v -0.922221 1.883650 -0.028765
v -0.936492 1.063508 -0.936492
v -0.936492 1.897921 -0.936492
v 0.922221 1.077779 -0.028765
v 0.922221 1.883650 -0.028765
v 0.936492 1.063508 -0.936492
v 0.936492 1.897921 -0.936492
v -1.000000 1.961429 -0.028765
v -1.000000 2.922859 -0.028765
v -1.000000 1.961429 -1.000000
v -1.000000 2.922859 -1.000000
v 1.000000 1.961429 -0.028765
v 1.000000 2.922859 -0.028765
v 1.000000 1.961429 -1.000000
v 1.000000 2.922859 -1.000000
v -0.922221 2.039209 -0.028765
v -0.922221 2.845080 -0.028765
v -0.936492 2.024938 -0.936492
v -0.936492 2.859351 -0.936492
v 0.922221 2.039209 -0.028765
v 0.922221 2.845080 -0.028765
v 0.936492 2.024938 -0.936492
v 0.936492 2.859351 -0.936492
v -1.000000 2.922859 -0.028765
v -1.000000 3.884288 -0.028765
v -1.000000 2.922859 -1.000000
v -1.000000 3.884288 -1.000000
v 1.000000 2.922859 -0.028765
v 1.000000 3.884288 -0.028765
v 1.000000 2.922859 -1.000000
v 1.000000 3.884288 -1.000000
v -0.922221 3.000638 -0.028765
v -0.922221 3.806509 -0.028765
v -0.936492 2.986367 -0.936492
v -0.936492 3.820780 -0.936492
v 0.922221 3.000638 -0.028765
v 0.922221 3.806509 -0.028765
v 0.936492 2.986367 -0.936492
v 0.936492 3.820780 -0.936492
v -0.800936 2.442144 -0.028765
v -0.800936 2.442144 -1.000000
v 1.199064 2.442144 -1.000000
v 1.199064 2.442144 -0.028765
v -0.723156 2.442144 -0.028765
v -0.737427 2.442144 -0.936492
v 1.135556 2.442144 -0.936492
v 1.121285 2.442144 -0.028765
v -1.148710 1.480715 -0.028765
v -1.148710 1.480715 -1.000000
v 0.851290 1.480715 -1.000000
v 0.851290 1.480715 -0.028765
v -1.070931 1.480715 -0.028765
v -1.085202 1.480715 -0.936492
v 0.787781 1.480715 -0.936492
v 0.773511 1.480715 -0.028765
vt 0.246395 0.000086
vt 0.490218 0.000086
vt 0.490218 0.246395
vt 0.246396 0.246395
vt 0.490218 0.753605
vt 0.246396 0.753605
vt 0.490218 0.999914
vt 0.246396 0.999914
vt 0.000086 0.753605
vt 0.000086 0.246395
vt 0.736528 0.246395
vt 0.736528 0.753605
vt 0.246395 0.000086
vt 0.246396 0.246395
vt 0.490218 0.246395
vt 0.490218 0.000086
vt 0.246396 0.753605
vt 0.490218 0.753605
vt 0.246396 0.999914
vt 0.490218 0.999914
vt 0.000086 0.246395
vt 0.000086 0.753605
vt 0.736528 0.753605
vt 0.736528 0.246395
vt 0.368307 0.000086
vt 0.490218 0.000086
vt 0.490218 0.246395
vt 0.368307 0.246395
vt 0.490218 0.753605
vt 0.368307 0.753605
vt 0.490218 0.999914
vt 0.368307 0.999914
vt 0.246396 0.246395
vt 0.246396 0.753605
vt 0.000086 0.753605
vt 0.000086 0.246395
vt 0.736528 0.246395
vt 0.736528 0.753605
vt 0.368307 0.000086
vt 0.368307 0.246395
vt 0.490218 0.246395
vt 0.490218 0.000086
vt 0.368307 0.753605
vt 0.490218 0.753605
vt 0.368307 0.999914
vt 0.490218 0.999914
vt 0.246396 0.246395
vt 0.000086 0.246395
vt 0.000086 0.753605
vt 0.246396 0.753605
vt 0.736528 0.753605
vt 0.736528 0.246395
vt 0.246395 0.000086
vt 0.246395 0.000086
vt 0.368307 0.000086
vt 0.490218 0.000086
vt 0.490218 0.246395
vt 0.368307 0.246395
vt 0.490218 0.753605
vt 0.368307 0.753605
vt 0.490218 0.999914
vt 0.368307 0.999914
vt 0.246396 0.246395
vt 0.246396 0.753605
vt 0.000086 0.753605
vt 0.000086 0.246395
vt 0.736528 0.246395
vt 0.736528 0.753605
vt 0.368307 0.000086
vt 0.368307 0.246395
vt 0.490218 0.246395
vt 0.490218 0.000086
vt 0.368307 0.753605
vt 0.490218 0.753605
vt 0.368307 0.999914
vt 0.490218 0.999914
vt 0.246396 0.246395
vt 0.000086 0.246395
vt 0.000086 0.753605
vt 0.246396 0.753605
vt 0.736528 0.753605
vt 0.736528 0.246395
vt 0.246395 0.000086
vt 0.246395 0.000086
vt 0.246395 0.000086
vt 0.490218 0.000086
vt 0.490218 0.246395
vt 0.246396 0.246395
vt 0.490218 0.753605
vt 0.246396 0.753605
vt 0.490218 0.999914
vt 0.246396 0.999914
vt 0.000086 0.753605
vt 0.000086 0.246395
vt 0.736528 0.246395
vt 0.736528 0.753605
vt 0.246395 0.000086
vt 0.246396 0.246395
vt 0.490218 0.246395
vt 0.490218 0.000086
vt 0.246396 0.753605
vt 0.490218 0.753605
vt 0.246396 0.999914
vt 0.490218 0.999914
vt 0.000086 0.246395
vt 0.000086 0.753605
vt 0.736528 0.753605
vt 0.736528 0.246395
vt 0.246396 0.999914
vt 0.246396 0.999914
vt 0.246396 0.999914
vt 0.246396 0.999914
vn -1.0000 0.0000 0.0000
vn 0.0000 0.0000 -1.0000
vn 1.0000 0.0000 0.0000
vn 0.0000 -1.0000 0.0000
vn 0.0000 1.0000 0.0000
vn 0.9999 0.0000 -0.0157
vn 0.0000 0.0000 1.0000
vn -0.9999 0.0000 -0.0157
vn 0.0000 0.9999 -0.0157
vn 0.0000 -0.9999 -0.0157
vn -0.9553 0.2955 0.0000
vn 0.9553 -0.2955 0.0000
vn 0.9399 -0.3409 -0.0175
vn -0.9400 0.3409 -0.0121
vn -0.9239 -0.3826 0.0000
vn 0.9239 0.3826 0.0000
vn 0.8996 0.4367 -0.0107
vn -0.8995 -0.4366 -0.0176
vn -0.8995 0.4366 -0.0176
vn 0.8996 -0.4367 -0.0107
vn 0.9239 -0.3826 0.0000
vn -0.9239 0.3826 0.0000
vn -0.9400 -0.3409 -0.0121
vn 0.9399 0.3409 -0.0175
vn 0.9553 0.2955 0.0000
vn -0.9553 -0.2955 0.0000
usemtl Material.001
s off
f 1/1/1 2/2/1 4/3/1 3/4/1
f 3/4/2 4/3/2 8/5/2 7/6/2
f 7/6/3 8/5/3 6/7/3 5/8/3
f 3/4/4 7/6/4 5/9/4 1/10/4
f 8/5/5 4/3/5 2/11/5 6/12/5
f 9/13/6 11/14/6 12/15/6 10/16/6
f 11/14/7 15/17/7 16/18/7 12/15/7
f 15/17/8 13/19/8 14/20/8 16/18/8
f 11/14/9 9/21/9 13/22/9 15/17/9
f 16/18/10 14/23/10 10/24/10 12/15/10
f 2/2/7 1/1/7 9/13/7 10/16/7
f 5/8/7 6/7/7 14/20/7 13/19/7
f 1/10/7 5/9/7 13/22/7 9/21/7
f 6/12/7 2/11/7 10/24/7 14/23/7
f 73/25/11 18/26/11 20/27/11 74/28/11
f 74/28/2 20/27/2 24/29/2 75/30/2
f 75/30/12 24/29/12 22/31/12 76/32/12
f 19/33/4 23/34/4 21/35/4 17/36/4
f 24/29/5 20/27/5 18/37/5 22/38/5
f 77/39/13 78/40/13 28/41/13 26/42/13
f 78/40/7 79/43/7 32/44/7 28/41/7
f 79/43/14 80/45/14 30/46/14 32/44/14
f 27/47/9 25/48/9 29/49/9 31/50/9
f 32/44/10 30/51/10 26/52/10 28/41/10
f 73/25/7 17/53/7 25/54/7 77/39/7
f 76/32/7 22/31/7 30/46/7 80/45/7
f 17/36/7 21/35/7 29/49/7 25/48/7
f 22/38/7 18/37/7 26/52/7 30/51/7
f 65/55/15 34/56/15 36/57/15 66/58/15
f 66/58/2 36/57/2 40/59/2 67/60/2
f 67/60/16 40/59/16 38/61/16 68/62/16
f 35/63/4 39/64/4 37/65/4 33/66/4
f 40/59/5 36/57/5 34/67/5 38/68/5
f 69/69/17 70/70/17 44/71/17 42/72/17
f 70/70/7 71/73/7 48/74/7 44/71/7
f 71/73/18 72/75/18 46/76/18 48/74/18
f 43/77/9 41/78/9 45/79/9 47/80/9
f 48/74/10 46/81/10 42/82/10 44/71/10
f 65/55/7 33/83/7 41/84/7 69/69/7
f 68/62/7 38/61/7 46/76/7 72/75/7
f 33/66/7 37/65/7 45/79/7 41/78/7
f 38/68/7 34/67/7 42/82/7 46/81/7
f 49/85/1 50/86/1 52/87/1 51/88/1
f 51/88/2 52/87/2 56/89/2 55/90/2
f 55/90/3 56/89/3 54/91/3 53/92/3
f 51/88/4 55/90/4 53/93/4 49/94/4
f 56/89/5 52/87/5 50/95/5 54/96/5
f 57/97/6 59/98/6 60/99/6 58/100/6
f 59/98/7 63/101/7 64/102/7 60/99/7
f 63/101/8 61/103/8 62/104/8 64/102/8
f 59/98/9 57/105/9 61/106/9 63/101/9
f 64/102/10 62/107/10 58/108/10 60/99/10
f 50/86/7 49/85/7 57/97/7 58/100/7
f 53/92/7 54/91/7 62/104/7 61/103/7
f 49/94/7 53/93/7 61/106/7 57/105/7
f 54/96/7 50/95/7 58/108/7 62/107/7
f 37/109/7 68/62/7 72/75/7 45/110/7
f 34/56/7 65/55/7 69/69/7 42/72/7
f 47/80/19 45/110/19 72/75/19 71/73/19
f 43/77/7 47/80/7 71/73/7 70/70/7
f 41/84/20 43/77/20 70/70/20 69/69/20
f 39/64/21 67/60/21 68/62/21 37/109/21
f 35/63/2 66/58/2 67/60/2 39/64/2
f 33/83/22 65/55/22 66/58/22 35/63/22
f 21/111/7 76/32/7 80/45/7 29/112/7
f 18/26/7 73/25/7 77/39/7 26/42/7
f 31/50/23 29/112/23 80/45/23 79/43/23
f 27/47/7 31/50/7 79/43/7 78/40/7
f 25/54/24 27/47/24 78/40/24 77/39/24
f 23/34/25 75/30/25 76/32/25 21/111/25
f 19/33/2 74/28/2 75/30/2 23/34/2
f 17/53/26 73/25/26 74/28/26 19/33/26
